<svg width="241" height="331" viewBox="0 0 241 331" fill="none" xmlns="http://www.w3.org/2000/svg">
<path d="M220.367 0.612305H20.2814C9.3041 0.612305 0.405273 9.51114 0.405273 20.4884V310.348C0.405273 321.325 9.3041 330.224 20.2814 330.224H220.367C231.345 330.224 240.243 321.325 240.243 310.348V20.4884C240.243 9.51114 231.345 0.612305 220.367 0.612305Z" fill="#271A34"/>
<mask id="mask0_1190_10190" style="mask-type:luminance" maskUnits="userSpaceOnUse" x="0" y="0" width="241" height="331">
<path d="M220.368 0.611328H20.2823C9.30508 0.611328 0.40625 9.51016 0.40625 20.4874V310.347C0.40625 321.324 9.30508 330.223 20.2823 330.223H220.368C231.346 330.223 240.244 321.324 240.244 310.347V20.4874C240.244 9.51016 231.346 0.611328 220.368 0.611328Z" fill="white"/>
</mask>
<g mask="url(#mask0_1190_10190)">
<path d="M36.5562 269.628L-29.9707 336.155H181.759L205.66 269.628" fill="black"/>
<path d="M36.5562 269.628L-29.9707 336.155H181.759L205.66 269.628" stroke="#F4C1FA" stroke-width="0.828171" stroke-linejoin="round"/>
<path d="M136.268 60.3743C96.806 67.5132 66.876 102.056 66.876 143.581V269.636H36.5566V143.581C36.5566 96.8801 74.4123 59.0244 121.105 59.0244C126.281 59.0244 131.341 59.4882 136.268 60.3743Z" fill="#713C9A" stroke="#F4C1FA" stroke-width="0.828171" stroke-linejoin="round"/>
<path d="M205.661 143.58V269.636H66.876V143.58C66.876 102.056 96.8061 67.5211 136.268 60.374C175.731 67.5211 205.661 102.056 205.661 143.58Z" fill="black" stroke="#F4C1FA" stroke-width="0.828171" stroke-linejoin="round"/>
<path d="M201.817 199.565C199.465 196.84 192.302 198.927 184.558 202.414H184.55C181.958 203.59 179.316 204.899 176.749 206.24C176.74 206.248 176.724 206.248 176.715 206.265C167.821 210.952 160.053 215.979 160.053 215.979V217.396L158.198 213.445L157.676 211.988L157.245 210.837L189.179 194.629L189.685 194.372L191.888 193.263C191.888 193.263 201.842 189.213 201.834 199.565H201.817Z" fill="#FCF3F1" stroke="#F4C1FA" stroke-width="0.828171" stroke-miterlimit="10"/>
<path d="M201.817 199.566C195.532 199.292 186.612 205.562 186.612 205.562L161.651 220.8L160.053 217.396V215.98C160.053 215.98 167.821 210.953 176.716 206.266C176.724 206.249 176.74 206.249 176.749 206.241C179.316 204.899 181.958 203.591 184.55 202.415H184.558C192.302 198.928 199.465 196.841 201.817 199.566Z" fill="#0A0C17"/>
<path d="M189.676 194.381L189.171 194.637C189.171 194.637 189.163 194.629 189.146 194.629C184.964 192.426 157.013 207.607 157.013 207.607L156.475 208.766L154.297 202.795L178.993 192.484C178.993 192.484 185.155 190.356 189.668 194.381H189.676Z" fill="#FCF3F1" stroke="#F4C1FA" stroke-width="0.828171" stroke-miterlimit="10"/>
<path d="M189.171 194.637L157.237 210.844L156.475 208.766L157.013 207.606C157.013 207.606 184.964 192.426 189.146 194.629C189.162 194.629 189.171 194.637 189.171 194.637Z" fill="#0A0C17"/>
<path d="M190.042 141.311L186.365 140.466L188.369 137.261C188.418 137.187 188.402 137.087 188.344 137.029C188.286 136.971 188.186 136.955 188.112 137.005L184.907 139.009L184.062 135.332C184.046 135.249 183.963 135.183 183.88 135.183C183.797 135.183 183.714 135.241 183.698 135.332L182.853 139.009L179.648 137.005C179.574 136.955 179.474 136.971 179.416 137.029C179.358 137.087 179.342 137.187 179.391 137.261L181.395 140.466L177.718 141.311C177.636 141.328 177.569 141.41 177.569 141.493C177.569 141.576 177.627 141.659 177.718 141.675L181.395 142.52L179.391 145.725C179.342 145.8 179.358 145.899 179.416 145.957C179.474 146.015 179.574 146.032 179.648 145.982L182.853 143.978L183.698 147.655C183.714 147.738 183.797 147.804 183.88 147.804C183.963 147.804 184.046 147.746 184.062 147.655L184.907 143.978L188.112 145.982C188.186 146.032 188.286 146.015 188.344 145.957C188.402 145.899 188.418 145.8 188.369 145.725L186.365 142.52L190.042 141.675C190.124 141.659 190.191 141.576 190.191 141.493C190.191 141.41 190.133 141.328 190.042 141.311Z" fill="#FCF3F1"/>
<path d="M128.898 115.705V125.784C128.898 127.705 126.57 129.461 122.703 130.819C117.924 132.5 110.802 133.569 102.843 133.569C94.8846 133.569 87.7623 132.5 82.9838 130.819C79.1245 129.461 76.7891 127.705 76.7891 125.784V115.705C76.7891 117.626 79.1162 119.382 82.9755 120.74C87.754 122.422 94.8763 123.49 102.835 123.49C110.794 123.49 117.916 122.422 122.695 120.74C126.554 119.382 128.881 117.626 128.881 115.705H128.898Z" fill="#F4C1FA" stroke="#713C9A" stroke-width="0.828171" stroke-miterlimit="10"/>
<path d="M128.898 125.784V135.855C128.898 137.776 126.57 139.532 122.703 140.89C117.924 142.571 110.802 143.64 102.843 143.64C94.8846 143.64 87.7623 142.571 82.9838 140.89C79.1245 139.532 76.7891 137.776 76.7891 135.855V125.784C76.7891 127.706 79.1162 129.461 82.9838 130.819C87.7623 132.501 94.8846 133.569 102.843 133.569C110.802 133.569 117.924 132.501 122.703 130.819C126.562 129.461 128.898 127.706 128.898 125.784Z" fill="#F4C1FA" stroke="#713C9A" stroke-width="0.828171" stroke-miterlimit="10"/>
<path d="M128.898 135.862V145.933C128.898 147.854 126.57 149.61 122.703 150.968C117.924 152.649 110.802 153.718 102.843 153.718C94.8846 153.718 87.7623 152.649 82.9838 150.968C79.1245 149.61 76.7891 147.854 76.7891 145.933V135.862C76.7891 137.784 79.1162 139.539 82.9838 140.898C87.7623 142.579 94.8846 143.647 102.843 143.647C110.802 143.647 117.924 142.579 122.703 140.898C126.562 139.539 128.898 137.784 128.898 135.862Z" fill="#F4C1FA" stroke="#713C9A" stroke-width="0.828171" stroke-miterlimit="10"/>
<path d="M128.898 145.934V156.004C128.898 157.926 126.57 159.681 122.703 161.039C117.924 162.721 110.802 163.789 102.843 163.789C94.8846 163.789 87.7623 162.721 82.9838 161.039C79.1245 159.681 76.7891 157.926 76.7891 156.004V145.934C76.7891 147.855 79.1162 149.611 82.9838 150.969C87.7623 152.65 94.8846 153.718 102.843 153.718C110.802 153.718 117.924 152.65 122.703 150.969C126.562 149.611 128.898 147.855 128.898 145.934Z" fill="#F4C1FA" stroke="#713C9A" stroke-width="0.828171" stroke-miterlimit="10"/>
<path d="M128.898 156.003V166.073C128.898 167.995 126.57 169.751 122.711 171.109C117.933 172.79 110.81 173.858 102.852 173.858C94.8929 173.858 87.7706 172.79 82.9921 171.109C79.1328 169.751 76.8057 167.987 76.8057 166.073V156.003C76.8057 157.924 79.1328 159.68 83.0004 161.038C87.7789 162.719 94.9012 163.788 102.86 163.788C110.819 163.788 117.941 162.719 122.719 161.038C126.579 159.68 128.914 157.924 128.914 156.003H128.898Z" fill="#F4C1FA" stroke="#713C9A" stroke-width="0.828171" stroke-miterlimit="10"/>
<path d="M128.897 166.083V176.162C128.897 180.46 117.236 183.947 102.851 183.947C88.4658 183.947 76.7969 180.46 76.7969 176.162V166.083C76.7969 168.004 79.124 169.76 82.9833 171.118C87.7619 172.799 94.8841 173.868 102.843 173.868C110.802 173.868 117.924 172.799 122.702 171.118C126.562 169.76 128.889 167.996 128.889 166.083H128.897Z" fill="#F4C1FA" stroke="#713C9A" stroke-width="0.828171" stroke-miterlimit="10"/>
<path d="M128.897 176.162V186.241C128.897 190.539 117.236 194.026 102.851 194.026C88.4658 194.026 76.7969 190.539 76.7969 186.241V176.162C76.7969 178.083 79.124 179.839 82.9833 181.197C87.7619 182.879 94.8841 183.947 102.843 183.947C110.802 183.947 117.924 182.879 122.702 181.197C126.562 179.839 128.889 178.075 128.889 176.162H128.897Z" fill="#F4C1FA" stroke="#713C9A" stroke-width="0.828171" stroke-miterlimit="10"/>
<path d="M128.897 186.231V196.31C128.897 200.608 117.236 204.095 102.851 204.095C88.4658 204.095 76.7969 200.608 76.7969 196.31V186.231C76.7969 188.153 79.124 189.909 82.9833 191.267C87.7619 192.948 94.8841 194.016 102.843 194.016C110.802 194.016 117.924 192.948 122.702 191.267C126.562 189.909 128.889 188.145 128.889 186.231H128.897Z" fill="#F4C1FA" stroke="#713C9A" stroke-width="0.828171" stroke-miterlimit="10"/>
<path d="M128.897 196.312V206.39C128.897 210.689 117.236 214.175 102.851 214.175C88.4658 214.175 76.7969 210.689 76.7969 206.39V196.312C76.7969 198.233 79.124 199.989 82.9833 201.347C87.7619 203.028 94.8841 204.096 102.843 204.096C110.802 204.096 117.924 203.028 122.702 201.347C126.562 199.989 128.889 198.225 128.889 196.312H128.897Z" fill="#F4C1FA" stroke="#713C9A" stroke-width="0.828171" stroke-miterlimit="10"/>
<path d="M128.897 206.381V216.46C128.897 220.758 117.236 224.245 102.851 224.245C88.4658 224.245 76.7969 220.758 76.7969 216.46V206.381C76.7969 208.302 79.124 210.058 82.9833 211.416C87.7619 213.097 94.8841 214.166 102.843 214.166C110.802 214.166 117.924 213.097 122.702 211.416C126.562 210.058 128.889 208.294 128.889 206.381H128.897Z" fill="#F4C1FA" stroke="#713C9A" stroke-width="0.828171" stroke-miterlimit="10"/>
<path d="M128.898 115.705C128.898 117.626 126.57 119.382 122.711 120.74C117.933 122.421 110.81 123.49 102.852 123.49C94.8929 123.49 87.7706 122.421 82.9921 120.74C79.1328 119.382 76.8057 117.626 76.8057 115.705C76.8057 111.407 88.4663 107.92 102.86 107.92C117.254 107.92 128.906 111.407 128.906 115.705H128.898Z" fill="#FF715D" stroke="#713C9A" stroke-width="0.828171" stroke-miterlimit="10"/>
<path opacity="0.69" d="M116.002 150.281V222.97H88.5486C81.4678 221.578 76.7969 219.185 76.7969 216.46V185.636C79.6623 185.503 82.4781 184.75 85.1283 182.025C92.8468 174.091 83.7783 165.279 91.5052 157.337C99.2237 149.403 108.276 158.215 116.002 150.281Z" fill="#713C9A" stroke="#713C9A" stroke-width="0.828171" stroke-linejoin="round"/>
<path d="M167.871 152.277V162.356C167.871 164.278 165.544 166.033 161.676 167.391C156.898 169.073 149.776 170.141 141.817 170.141C133.858 170.141 126.736 169.073 121.957 167.391C118.098 166.033 115.763 164.278 115.763 162.356V152.277C115.763 154.199 118.09 155.954 121.949 157.313C126.728 158.994 133.85 160.062 141.809 160.062C149.767 160.062 156.89 158.994 161.668 157.313C165.527 155.954 167.855 154.199 167.855 152.277H167.871Z" fill="#F4C1FA" stroke="#713C9A" stroke-width="0.828171" stroke-miterlimit="10"/>
<path d="M167.871 162.356V172.427C167.871 174.348 165.544 176.104 161.676 177.462C156.898 179.143 149.776 180.212 141.817 180.212C133.858 180.212 126.736 179.143 121.957 177.462C118.098 176.104 115.763 174.348 115.763 172.427V162.356C115.763 164.278 118.09 166.034 121.957 167.392C126.736 169.073 133.858 170.141 141.817 170.141C149.776 170.141 156.898 169.073 161.676 167.392C165.536 166.034 167.871 164.278 167.871 162.356Z" fill="#F4C1FA" stroke="#713C9A" stroke-width="0.828171" stroke-miterlimit="10"/>
<path d="M167.871 172.427V182.497C167.871 184.419 165.544 186.174 161.676 187.533C156.898 189.214 149.776 190.282 141.817 190.282C133.858 190.282 126.736 189.214 121.957 187.533C118.098 186.174 115.763 184.419 115.763 182.497V172.427C115.763 174.348 118.09 176.104 121.957 177.462C126.736 179.143 133.858 180.212 141.817 180.212C149.776 180.212 156.898 179.143 161.676 177.462C165.536 176.104 167.871 174.348 167.871 172.427Z" fill="#F4C1FA" stroke="#713C9A" stroke-width="0.828171" stroke-miterlimit="10"/>
<path d="M167.871 182.506V192.576C167.871 194.498 165.544 196.253 161.676 197.612C156.898 199.293 149.776 200.361 141.817 200.361C133.858 200.361 126.736 199.293 121.957 197.612C118.098 196.253 115.763 194.498 115.763 192.576V182.506C115.763 184.427 118.09 186.183 121.957 187.541C126.736 189.222 133.858 190.291 141.817 190.291C149.776 190.291 156.898 189.222 161.676 187.541C165.536 186.183 167.871 184.427 167.871 182.506Z" fill="#F4C1FA" stroke="#713C9A" stroke-width="0.828171" stroke-miterlimit="10"/>
<path d="M167.87 192.575V202.646C167.87 204.567 165.543 206.323 161.684 207.681C156.905 209.362 149.783 210.431 141.824 210.431C133.866 210.431 126.743 209.362 121.965 207.681C118.105 206.323 115.778 204.559 115.778 202.646V192.575C115.778 194.497 118.105 196.252 121.973 197.61C126.752 199.292 133.874 200.36 141.833 200.36C149.791 200.36 156.914 199.292 161.692 197.61C165.551 196.252 167.887 194.497 167.887 192.575H167.87Z" fill="#F4C1FA" stroke="#713C9A" stroke-width="0.828171" stroke-miterlimit="10"/>
<path d="M167.871 202.646V212.725C167.871 217.024 156.21 220.51 141.825 220.51C127.439 220.51 115.771 217.024 115.771 212.725V202.646C115.771 204.568 118.098 206.324 121.957 207.682C126.735 209.363 133.858 210.431 141.816 210.431C149.775 210.431 156.897 209.363 161.676 207.682C165.535 206.324 167.862 204.56 167.862 202.646H167.871Z" fill="#F4C1FA" stroke="#713C9A" stroke-width="0.828171" stroke-miterlimit="10"/>
<path d="M167.87 152.277C167.87 154.198 165.543 155.954 161.684 157.312C156.905 158.993 149.783 160.062 141.824 160.062C133.866 160.062 126.743 158.993 121.965 157.312C118.105 155.954 115.778 154.198 115.778 152.277C115.778 147.979 127.439 144.492 141.833 144.492C156.226 144.492 167.879 147.979 167.879 152.277H167.87Z" fill="#FF715D" stroke="#713C9A" stroke-width="0.828171" stroke-miterlimit="10"/>
<path d="M203.085 209.039C203.085 209.039 177.718 231.549 159.101 245.512L146.124 253.446C143.962 254.771 141.577 255.707 139.092 256.212C130.695 257.935 110.057 261.984 94.4292 263.517C92.4085 263.707 90.9012 265.454 91.0089 267.475C91.4975 276.105 93.2366 302.689 96.4831 336.164H36.5566C36.5566 336.164 41.948 284.701 44.7887 269.802C46.5692 260.485 49.2276 251.665 54.2878 243.433C59.2568 235.334 66.7021 229.065 75.3399 225.131L129.287 200.493C129.287 200.493 144.865 194.961 145.014 203.582C145.105 209.122 109.253 234.589 102.446 239.384C101.701 239.905 101.651 240.99 102.347 241.562C103.829 242.804 107.374 243.955 115.581 240.734C131.457 234.497 138.231 243.657 152.086 228.129C154.041 225.934 156.335 224.071 158.844 222.539L166.77 217.702L168.078 216.899L188.526 204.418C188.526 204.418 195.83 199.292 200.982 199.507C202.191 199.557 203.284 199.896 204.129 200.658C208.634 204.716 203.085 209.064 203.085 209.064V209.039Z" fill="#FCF3F1" stroke="#F4C1FA" stroke-width="0.828171" stroke-miterlimit="10"/>
</g>
</svg>
