<svg width="152" height="141" viewBox="0 0 152 141" fill="none" xmlns="http://www.w3.org/2000/svg">
<path d="M19.8868 0.878906H131.839C142.54 0.878906 151.215 9.55388 151.215 20.255V120.903C151.215 131.604 142.54 140.279 131.839 140.279H19.8868C9.18572 140.279 0.510742 131.604 0.510742 120.903V20.255C0.510742 9.55388 9.18572 0.878906 19.8868 0.878906Z" fill="#271A34" stroke="#713C9A"/>
<path d="M98.2978 73.3559L72.3098 76.0392L65.9329 83.0207L60.0446 89.4638L54.3965 95.6503L65.9329 105.423L83.8462 85.8033L72.3098 76.0392L98.2978 73.3477V73.3559Z" fill="black"/>
<path d="M98.2978 73.3559L109.834 83.1283M98.2978 73.3559L72.3098 76.0392M98.2978 73.3559V73.3477L72.3098 76.0392M72.3098 76.0392L65.9329 83.0207L60.0446 89.4638L54.3965 95.6503L65.9329 105.423L83.8462 85.8033L72.3098 76.0392Z" stroke="#F4C1FA" stroke-width="0.828171" stroke-linejoin="round"/>
<path d="M98.2976 73.3564L72.3096 76.0397L83.846 85.8038L109.834 83.1206L98.2976 73.3564Z" fill="#713C9A" stroke="#F4C1FA" stroke-width="0.828171" stroke-linejoin="round"/>
<path d="M60.0446 89.4646L65.9329 83.0214L72.3098 76.04L98.2978 73.3567L65.9329 45.613L54.3965 35.7246V95.651L60.0446 89.4646Z" fill="#FCF3F1" stroke="#F4C1FA" stroke-width="0.828171" stroke-miterlimit="10"/>
</svg>
