<svg width="241" height="475" viewBox="0 0 241 475" fill="none" xmlns="http://www.w3.org/2000/svg">
<path d="M220.294 0.386719H20.2081C9.23086 0.386719 0.332031 9.28555 0.332031 20.2628V454.464C0.332031 465.442 9.23086 474.34 20.2081 474.34H220.294C231.271 474.34 240.17 465.442 240.17 454.464V20.2628C240.17 9.28555 231.271 0.386719 220.294 0.386719Z" fill="#713C9A"/>
<mask id="mask0_1190_10155" style="mask-type:luminance" maskUnits="userSpaceOnUse" x="0" y="0" width="241" height="475">
<path d="M220.294 0.386719H20.2081C9.23086 0.386719 0.332031 9.28555 0.332031 20.2628V454.464C0.332031 465.442 9.23086 474.34 20.2081 474.34H220.294C231.271 474.34 240.17 465.442 240.17 454.464V20.2628C240.17 9.28555 231.271 0.386719 220.294 0.386719Z" fill="white"/>
</mask>
<g mask="url(#mask0_1190_10155)">
<path d="M-17.0513 398.124C-7.23746 384.583 8.22448 395.788 18.0383 382.248C27.8521 368.707 12.3902 357.502 22.204 343.961C32.0178 330.421 47.4797 341.626 57.2936 328.085C67.1074 314.545 51.6455 303.339 61.4593 289.799C71.2731 276.258 86.735 287.463 96.5489 273.923L129.543 475.582H-15.9416L-17.0596 398.132L-17.0513 398.124Z" fill="url(#paint0_linear_1190_10155)"/>
<path d="M155.779 293.915C155.622 293.957 155.456 293.857 155.415 293.692L141.493 243.72C133.336 214.436 148.756 184.473 175.862 176.928C181.444 175.371 187.101 174.891 192.625 175.354C213.917 177.152 233.329 193.086 239.805 216.341L253.727 266.312" stroke="#F4C1FA" stroke-width="0.828171" stroke-linejoin="round"/>
<path d="M316.884 223.48L117.643 278.967L96.5576 273.907L295.468 218.511L316.884 223.48Z" fill="black" stroke="#F4C1FA" stroke-width="0.828171" stroke-linejoin="round"/>
<path d="M140.798 247.877L151.937 259.215C148.55 261.782 145.279 264.043 142.19 265.972C141.444 266.436 140.707 266.892 139.979 267.306L128.757 255.927C132.484 253.765 136.558 251.049 140.79 247.877H140.798Z" fill="#F4C1FA" stroke="#F4C1FA" stroke-width="0.828171" stroke-miterlimit="10"/>
<path d="M128.757 255.936L139.979 267.315C136.285 269.493 132.906 271.141 129.999 272.159C125.486 273.766 122.132 273.857 120.566 272.135L109.933 260.408C112.45 263.182 119.581 261.252 128.757 255.936Z" fill="black" stroke="#F4C1FA" stroke-width="0.828171" stroke-linejoin="round"/>
<path d="M179.846 196.978L190.48 208.704C195.002 213.673 183.01 231.91 163.697 249.426C159.73 253.02 155.763 256.308 151.937 259.215L140.798 247.877C144.79 244.871 148.93 241.45 153.063 237.699C172.376 220.183 184.368 201.947 179.846 196.978Z" fill="black" stroke="#F4C1FA" stroke-width="0.828171" stroke-linejoin="round"/>
<path d="M179.847 196.978C184.368 201.947 172.376 220.183 153.064 237.699C148.923 241.451 144.79 244.871 140.798 247.877C136.558 251.057 132.492 253.765 128.765 255.927C119.589 261.236 112.458 263.174 109.941 260.399C106.264 256.358 113.51 243.538 126.728 229.475C129.767 226.237 133.121 222.949 136.724 219.678C137.312 219.131 137.908 218.601 138.504 218.08C157.196 201.549 175.474 192.15 179.855 196.978H179.847Z" fill="url(#paint1_linear_1190_10155)" stroke="#F4C1FA" stroke-width="0.828171" stroke-miterlimit="10"/>
<path d="M117.642 278.967L183.581 498.846L156.384 500.602C143.614 501.422 132.301 492.42 130.231 479.79L96.5488 273.915L117.642 278.975V278.967Z" fill="#F4C1FA" stroke="#F4C1FA" stroke-width="0.828171" stroke-linejoin="round"/>
<path d="M316.884 223.479L117.643 278.975L151.043 470.846C154.471 490.531 174.14 502.962 193.387 497.596L367.402 449.131C385.398 444.121 395.138 424.667 388.363 407.259L316.884 223.488V223.479Z" fill="#FCF3F1" stroke="#F4C1FA" stroke-width="0.828171" stroke-miterlimit="10"/>
<path d="M172.748 289.17C173.311 288.814 173.949 288.524 174.628 288.342C178.388 287.298 182.28 289.493 183.324 293.245C184.367 296.996 182.173 300.897 178.421 301.94C177.742 302.131 177.055 302.214 176.384 302.197C178.951 300.574 180.268 297.41 179.415 294.329C178.562 291.257 175.796 289.22 172.756 289.162L172.748 289.17Z" fill="#F4C1FA" stroke="#F4C1FA" stroke-width="0.828171" stroke-miterlimit="10"/>
<path d="M169.726 297.029C168.873 293.957 170.181 290.785 172.749 289.17C175.788 289.228 178.554 291.257 179.407 294.338C180.26 297.41 178.943 300.582 176.376 302.205C173.337 302.139 170.579 300.11 169.717 297.038L169.726 297.029Z" fill="black" stroke="#F4C1FA" stroke-width="0.828171" stroke-linejoin="round"/>
<path d="M171.573 130.649L180.07 144.082C176.219 145.879 172.542 147.395 169.114 148.629C168.286 148.927 167.474 149.209 166.671 149.465L158.107 135.975C162.207 134.649 166.762 132.861 171.573 130.649Z" fill="#F4C1FA" stroke="#F4C1FA" stroke-width="0.828171" stroke-miterlimit="10"/>
<path d="M158.099 135.975L166.662 149.466C162.595 150.815 158.943 151.71 155.887 152.091C151.134 152.704 147.837 152.091 146.678 150.07L138.761 136.364C140.632 139.61 148.011 139.221 158.107 135.975H158.099Z" fill="black" stroke="#F4C1FA" stroke-width="0.828171" stroke-linejoin="round"/>
<path d="M220.502 89.1504L228.419 102.857C231.781 108.67 216.212 123.958 193.636 137.002C188.998 139.677 184.426 142.054 180.07 144.083L171.573 130.65C176.112 128.555 180.882 126.087 185.718 123.296C208.294 110.252 223.872 94.9641 220.502 89.1504Z" fill="black" stroke="#F4C1FA" stroke-width="0.828171" stroke-linejoin="round"/>
<path d="M220.501 89.15C223.864 94.9638 208.294 110.252 185.718 123.296C180.881 126.086 176.111 128.554 171.573 130.65C166.761 132.861 162.206 134.65 158.107 135.975C148.011 139.23 140.632 139.61 138.761 136.364C136.028 131.635 145.817 120.645 161.709 109.689C165.362 107.171 169.337 104.662 173.552 102.227C174.248 101.821 174.935 101.424 175.631 101.043C197.395 88.8353 217.246 83.5102 220.509 89.15H220.501Z" fill="url(#paint2_linear_1190_10155)" stroke="#F4C1FA" stroke-width="0.828171" stroke-miterlimit="10"/>
<path d="M46.329 50.3176L36.747 62.9969C33.7076 60.0237 30.9913 57.1169 28.631 54.3425C28.0595 53.6717 27.5047 53.0091 26.9912 52.3549L36.6063 39.5928C39.2895 42.9634 42.5691 46.5991 46.329 50.3259V50.3176Z" fill="#F4C1FA" stroke="#F4C1FA" stroke-width="0.828171" stroke-miterlimit="10"/>
<path d="M36.6063 39.5841L26.9912 52.3462C24.2997 49.017 22.1713 45.9113 20.7386 43.1867C18.4859 38.9547 17.9062 35.6503 19.3886 33.8532L29.4343 21.6211C27.0575 24.5197 30.014 31.2858 36.6063 39.5924V39.5841Z" fill="black" stroke="#F4C1FA" stroke-width="0.828171" stroke-linejoin="round"/>
<path d="M102.396 81.5058L92.3505 93.7379C88.0937 98.9388 68.3004 89.7378 48.151 73.191C44.0184 69.7872 40.184 66.3503 36.7471 62.9879L46.329 50.3086C49.8901 53.82 53.8736 57.4143 58.1884 60.9589C78.3461 77.5057 98.1311 86.6984 102.388 81.5058H102.396Z" fill="black" stroke="#F4C1FA" stroke-width="0.828171" stroke-linejoin="round"/>
<path d="M102.396 81.5063C98.139 86.7072 78.3457 77.5062 58.1963 60.9594C53.8815 57.4148 49.8897 53.8206 46.3369 50.3091C42.577 46.5824 39.2974 42.955 36.6142 39.576C30.0219 31.2778 27.0654 24.5033 29.4422 21.6047C32.904 17.3811 46.6433 22.6731 62.4862 33.696C66.1302 36.2302 69.8735 39.0626 73.6417 42.1516C74.2628 42.6568 74.8756 43.162 75.4802 43.6838C94.5695 59.7585 106.537 76.471 102.404 81.5063H102.396Z" fill="url(#paint3_linear_1190_10155)" stroke="#F4C1FA" stroke-width="0.828171" stroke-miterlimit="10"/>
<path d="M175.002 288.557C174.845 288.598 174.679 288.499 174.637 288.333L160.716 238.362C152.558 209.077 167.979 179.114 195.085 171.57C200.667 170.013 206.323 169.532 211.847 169.996C233.139 171.793 252.552 187.727 259.028 210.982L272.95 260.954" stroke="#F4C1FA" stroke-width="0.828171" stroke-linejoin="round"/>
</g>
<defs>
<linearGradient id="paint0_linear_1190_10155" x1="56.2501" y1="275.314" x2="56.2501" y2="494.432" gradientUnits="userSpaceOnUse">
<stop/>
<stop offset="1" stop-color="#69458C"/>
</linearGradient>
<linearGradient id="paint1_linear_1190_10155" x1="142.413" y1="263.74" x2="147.388" y2="193.638" gradientUnits="userSpaceOnUse">
<stop stop-color="#F6D0C1"/>
<stop offset="0.47" stop-color="#EE8C6A"/>
<stop offset="1" stop-color="#C7A2F8"/>
</linearGradient>
<linearGradient id="paint2_linear_1190_10155" x1="138.297" y1="112.761" x2="220.957" y2="112.761" gradientUnits="userSpaceOnUse">
<stop stop-color="#F6D0C1"/>
<stop offset="0.47" stop-color="#EE8C6A"/>
<stop offset="1" stop-color="#C7A2F8"/>
</linearGradient>
<linearGradient id="paint3_linear_1190_10155" x1="51.3883" y1="12.8765" x2="80.4821" y2="90.2381" gradientUnits="userSpaceOnUse">
<stop stop-color="#F6D0C1"/>
<stop offset="0.47" stop-color="#EE8C6A"/>
<stop offset="1" stop-color="#C7A2F8"/>
</linearGradient>
</defs>
</svg>
