<svg width="241" height="231" viewBox="0 0 241 231" fill="none" xmlns="http://www.w3.org/2000/svg">
<path d="M20.1349 0.612305H220.221C231.194 0.612305 240.097 10.0016 240.097 21.5877V209.315C240.097 220.901 231.194 230.29 220.221 230.29H20.1349C9.16162 230.29 0.258789 220.901 0.258789 209.315V21.5877C0.258789 10.0016 9.16162 0.612305 20.1349 0.612305Z" fill="#713C9A"/>
<path d="M158.981 40.1113L116.711 117.363V29.3037C132.032 29.3037 146.434 33.221 158.981 40.1113Z" fill="#56456B" stroke="#F4C1FA" stroke-width="0.828171" stroke-linejoin="round"/>
<path d="M204.745 119.044C203.867 166.896 164.761 205.422 116.702 205.422C68.6437 205.422 28.6182 165.993 28.6182 117.363C28.6182 68.7329 68.064 29.3037 116.702 29.3037V117.363L204.745 119.044Z" fill="black" stroke="#F4C1FA" stroke-width="0.828171" stroke-linejoin="round"/>
<path d="M223.95 119.036L135.907 117.371L178.185 40.1191C205.482 55.0593 223.975 84.0453 223.975 117.371C223.975 117.926 223.975 118.481 223.95 119.036Z" fill="#FF715D" stroke="#F4C1FA" stroke-width="0.828171" stroke-linejoin="round"/>
<path d="M158.98 40.1113L116.702 117.371H135.899L178.186 40.1196L158.98 40.1113Z" fill="#F4C1FA" stroke="#F4C1FA" stroke-width="0.828171" stroke-linejoin="round"/>
<path d="M29.6177 19.9914L26.951 23.2295L26.363 23.9004L26.2968 23.9666C25.0545 25.1757 23.3484 25.9211 21.4767 25.9211C17.6672 25.9211 14.5781 22.832 14.5781 19.0142C14.5781 17.3661 15.1578 15.8505 16.1185 14.6663L16.1517 14.6248L16.5658 14.1694L16.5989 14.1362L19.2324 10.9561L23.4644 12.4054C25.4851 13.0099 27.1083 14.5089 27.8868 16.4468L29.6177 19.9914Z" fill="black" stroke="#F4C1FA" stroke-width="0.828171" stroke-linejoin="round"/>
<path d="M24.0525 22.807C27.8671 22.807 30.9594 19.7147 30.9594 15.9001C30.9594 12.0855 27.8671 8.99316 24.0525 8.99316C20.2379 8.99316 17.1455 12.0855 17.1455 15.9001C17.1455 19.7147 20.2379 22.807 24.0525 22.807Z" fill="#F4C1FA" stroke="#F4C1FA" stroke-width="0.828171" stroke-linejoin="round"/>
<path d="M40.6813 25.9213C44.4959 25.9213 47.5882 22.829 47.5882 19.0144C47.5882 15.1998 44.4959 12.1074 40.6813 12.1074C36.8667 12.1074 33.7744 15.1998 33.7744 19.0144C33.7744 22.829 36.8667 25.9213 40.6813 25.9213Z" fill="black" stroke="#F4C1FA" stroke-width="0.828171" stroke-linejoin="round"/>
</svg>
