<svg width="241" height="331" viewBox="0 0 241 331" fill="none" xmlns="http://www.w3.org/2000/svg">
<path d="M220.528 0.954102H20.4415C9.46426 0.954102 0.56543 9.85293 0.56543 20.8302V310.69C0.56543 321.667 9.46426 330.566 20.4415 330.566H220.528C231.505 330.566 240.404 321.667 240.404 310.69V20.8302C240.404 9.85293 231.505 0.954102 220.528 0.954102Z" fill="#322347"/>
<mask id="mask0_1190_10231" style="mask-type:luminance" maskUnits="userSpaceOnUse" x="0" y="0" width="241" height="331">
<path d="M220.528 0.954102H20.4415C9.46426 0.954102 0.56543 9.85293 0.56543 20.8302V310.69C0.56543 321.667 9.46426 330.566 20.4415 330.566H220.528C231.505 330.566 240.404 321.667 240.404 310.69V20.8302C240.404 9.85293 231.505 0.954102 220.528 0.954102Z" fill="white"/>
</mask>
<g mask="url(#mask0_1190_10231)">
<path d="M258.036 307.6H-11.2852V332.933H258.036V307.6Z" fill="#713C9A" stroke="#F4C1FA" stroke-width="0.828171" stroke-linejoin="round"/>
<path d="M193.688 121.941V307.095C193.688 307.41 193.489 307.658 193.265 307.658H47.6978C47.4576 307.658 47.2754 307.41 47.2754 307.095V121.941C47.2754 67.8615 80.1124 23.8691 120.477 23.8691C128.792 23.8691 136.792 25.7408 144.246 29.1777C172.975 42.4202 193.679 79.0005 193.679 121.941H193.688Z" fill="url(#paint0_linear_1190_10231)" stroke="#F4C1FA" stroke-width="0.828171" stroke-linejoin="round"/>
<path d="M193.687 121.941V307.095C193.687 307.41 193.489 307.658 193.265 307.658H95.2427C95.0191 307.658 94.8203 307.41 94.8203 307.095V121.941C94.8203 79.0005 115.525 42.4202 144.254 29.1777C172.983 42.4202 193.687 79.0005 193.687 121.941Z" fill="black" stroke="#F4C1FA" stroke-width="0.828171" stroke-linejoin="round"/>
<path d="M153.38 107.937C140.51 108.665 139.922 109.253 139.193 122.123C138.465 109.253 137.877 108.665 125.007 107.937C137.877 107.208 138.465 106.62 139.193 93.75C139.922 106.62 140.51 107.208 153.38 107.937Z" fill="#FCF3F1"/>
<path d="M117.479 177.652L113.777 176.799L115.789 173.578C115.839 173.503 115.823 173.404 115.765 173.346C115.707 173.28 115.607 173.271 115.533 173.321L112.311 175.333L111.458 171.631C111.442 171.549 111.359 171.482 111.276 171.482C111.193 171.482 111.11 171.54 111.094 171.631L110.241 175.333L107.019 173.321C106.945 173.271 106.845 173.288 106.787 173.346C106.721 173.412 106.713 173.503 106.762 173.578L108.775 176.799L105.073 177.652C104.99 177.669 104.924 177.752 104.924 177.835C104.924 177.917 104.982 178 105.073 178.017L108.775 178.87L106.762 182.091C106.713 182.166 106.729 182.265 106.787 182.323C106.845 182.389 106.945 182.398 107.019 182.348L110.241 180.336L111.094 184.037C111.11 184.12 111.193 184.187 111.276 184.187C111.359 184.187 111.442 184.129 111.458 184.037L112.311 180.336L115.533 182.348C115.607 182.398 115.707 182.381 115.765 182.323C115.831 182.257 115.839 182.166 115.789 182.091L113.777 178.87L117.479 178.017C117.562 178 117.628 177.917 117.628 177.835C117.628 177.752 117.57 177.669 117.479 177.652Z" fill="#FCF3F1"/>
<path d="M185.149 230.348L182.672 229.777L184.022 227.615C184.055 227.566 184.047 227.499 184.006 227.458C183.964 227.417 183.898 227.408 183.848 227.442L181.687 228.791L181.115 226.315C181.099 226.257 181.049 226.216 180.991 226.216C180.933 226.216 180.884 226.257 180.867 226.315L180.296 228.791L178.134 227.442C178.084 227.408 178.018 227.417 177.977 227.458C177.935 227.499 177.927 227.566 177.96 227.615L179.31 229.777L176.834 230.348C176.776 230.365 176.734 230.415 176.734 230.473C176.734 230.531 176.776 230.58 176.834 230.597L179.31 231.168L177.96 233.33C177.927 233.379 177.935 233.446 177.977 233.487C178.018 233.529 178.084 233.537 178.134 233.504L180.296 232.154L180.867 234.63C180.884 234.688 180.933 234.729 180.991 234.729C181.049 234.729 181.099 234.688 181.115 234.63L181.687 232.154L183.848 233.504C183.898 233.537 183.964 233.529 184.006 233.487C184.047 233.446 184.055 233.379 184.022 233.33L182.672 231.168L185.149 230.597C185.207 230.58 185.248 230.531 185.248 230.473C185.248 230.415 185.207 230.365 185.149 230.348Z" fill="#FCF3F1"/>
</g>
<path d="M136.568 238.3C136.568 241.348 135.74 244.197 134.299 246.631C131.491 251.385 126.357 254.565 120.493 254.565C111.607 254.565 104.41 247.286 104.41 238.3C104.41 232.834 107.077 227.997 111.176 225.049C113.802 223.153 117.023 222.043 120.493 222.043C129.38 222.043 136.576 229.323 136.576 238.3H136.568Z" fill="#FCF3F1"/>
<path d="M136.352 238.764C136.352 238.93 136.352 239.087 136.344 239.253C136.154 244.247 132.559 248.495 127.673 249.531C126.754 249.721 125.777 249.845 124.783 249.845C115.913 249.845 108.725 242.657 108.725 233.787C108.725 233.597 108.725 233.406 108.733 233.207C108.923 227.816 113.023 223.336 118.381 222.698C119.019 222.623 119.673 222.582 120.336 222.582C129.189 222.607 136.419 229.903 136.352 238.764Z" fill="#FCF3F1"/>
<path d="M120.485 255.931L104.592 322.392C96.9977 320.785 92.0039 318.069 92.0039 314.98L93.2875 312.313L120.485 255.923V255.931Z" fill="url(#paint1_radial_1190_10231)" stroke="#F4C1FA" stroke-width="0.828171" stroke-miterlimit="10"/>
<path d="M148.957 314.988C148.957 319.924 136.204 323.916 120.477 323.916C114.588 323.916 109.122 323.361 104.584 322.4L120.477 255.939L147.674 312.33L148.957 314.988Z" fill="#FF715D" stroke="#F4C1FA" stroke-width="0.828171" stroke-miterlimit="10"/>
<defs>
<linearGradient id="paint0_linear_1190_10231" x1="120.486" y1="-44.8359" x2="120.486" y2="299.186" gradientUnits="userSpaceOnUse">
<stop stop-color="#F6D0C1"/>
<stop offset="0.47" stop-color="#EE8C6A"/>
<stop offset="1" stop-color="#C7A2F8"/>
</linearGradient>
<radialGradient id="paint1_radial_1190_10231" cx="0" cy="0" r="1" gradientUnits="userSpaceOnUse" gradientTransform="translate(120.303 256.146) scale(70.2786 70.2786)">
<stop stop-color="#FCF3F1"/>
<stop offset="0.7" stop-color="#6A3F94"/>
<stop offset="1"/>
</radialGradient>
</defs>
</svg>
