<svg width="27" height="26" viewBox="0 0 27 26" fill="none" xmlns="http://www.w3.org/2000/svg">
<path d="M13.4908 0.81776L1.68885 5.95689C1.28993 6.13059 1.28787 6.69565 1.68551 6.87227L13.4874 12.1141C13.6184 12.1723 13.7681 12.1715 13.8985 12.1118L25.35 6.86992C25.7408 6.69104 25.7387 6.13509 25.3466 5.95912L13.8951 0.820013C13.7667 0.762368 13.6199 0.76155 13.4908 0.81776Z" stroke="#FF715D" stroke-width="1.5"/>
<path fill-rule="evenodd" clip-rule="evenodd" d="M5.17285 9.10595V21.5151V21.6072L5.19513 21.6965L5.92285 21.5151C5.19513 21.6965 5.19532 21.6973 5.19551 21.698L5.1959 21.6996L5.19677 21.703L5.19878 21.7107L5.20399 21.7296C5.20802 21.7437 5.21319 21.761 5.21967 21.7811C5.23263 21.8213 5.25088 21.8732 5.27586 21.9348C5.32584 22.0582 5.40276 22.2209 5.51816 22.4092C5.74996 22.7875 6.13271 23.2616 6.75133 23.7233C7.99218 24.6495 10.1172 25.4795 13.735 25.4795C17.3528 25.4795 19.4779 24.6495 20.7187 23.7233C21.3374 23.2616 21.7201 22.7875 21.9519 22.4092C22.0673 22.2209 22.1442 22.0582 22.1942 21.9348C22.2192 21.8732 22.2374 21.8213 22.2504 21.7811C22.2569 21.761 22.262 21.7437 22.2661 21.7296L22.2713 21.7107L22.2733 21.703L22.2742 21.6996L22.2746 21.698C22.2748 21.6973 22.2749 21.6965 21.5472 21.5151L22.2749 21.6965L22.2972 21.6072V21.5151V8.92627L18.7747 10.6836L20.7972 9.75002V21.3879C20.7746 21.4414 20.7355 21.5234 20.673 21.6254C20.5354 21.8499 20.2796 22.1794 19.8215 22.5212C18.909 23.2023 17.128 23.9795 13.735 23.9795C10.3421 23.9795 8.56109 23.2023 7.64852 22.5212C7.19044 22.1794 6.93464 21.8499 6.79709 21.6254C6.73454 21.5234 6.69548 21.4414 6.67285 21.3879V9.88586L8.16003 10.5519L5.17285 9.10595ZM8.79349 9.19205L13.6827 11.3818L18.1254 9.33117L13.6713 11.5532L8.79349 9.19205Z" fill="#FF715D"/>
<path d="M25.1719 6.06641V24.7296" stroke="#FF715D" stroke-width="1.5" stroke-linejoin="round"/>
</svg>
